# xmcd
#
# Track frame offsets: 
#        150
#        10390
#        23594
#        31362
#        41282
#        52035
#        63845
#        72832
#        85797
#        96786
#        118751
#        134082
#
# Disc length: 1797 seconds
#
# Revision: 0
# Processed by: cddbd v1.5.2PL0 Copyright (c) Steve Scherf et al.
# Submitted via: ExactAudioCopy v0.99pb5
#
DISCID=9b07030c
DTITLE=The Hickory Project - Icy Roads
DYEAR=2000
DGENRE=Bluegrass
TTITLE0=Cambridge
TTITLE1=Call Me The Breeze
TTITLE2=Big Mon
TTITLE3=Shade
TTITLE4=Pig In A Pen
TTITLE5=Anne Marie
TTITLE6=Icy Roads
TTITLE7=You Say You
TTITLE8=Oh, Lady Be Good
TTITLE9=Rocky Top
TTITLE10=Rawhide
TTITLE11=Cool Ending
EXTD=
EXTT0=
EXTT1=
EXTT2=
EXTT3=
EXTT4=
EXTT5=
EXTT6=
EXTT7=
EXTT8=
EXTT9=
EXTT10=
EXTT11=
PLAYORDER=
